<svg width="51" height="48" viewBox="0 0 51 48" fill="none" xmlns="http://www.w3.org/2000/svg">
<path d="M51 28.5333C51 39.2845 42.2944 48 31.5554 48C20.8164 48 12.1108 39.2845 12.1108 28.5333C12.1108 17.7821 20.8164 9.06655 31.5554 9.06655C42.2944 9.06655 51 17.7821 51 28.5333Z" fill="#F4F910"/>
<path d="M13.6437 8.22275C10.7928 23.7848 0 24.6682 0 24.6682C0 24.6682 3.32609 19.9113 4.48003 8.22275H0.746672V5.50448H4.68367C4.75155 3.80557 4.81943 1.97074 4.81943 0H14.3225C14.3225 1.97074 14.2547 3.80557 14.051 5.50448H21.0426L23.7578 2.78622L26.4729 5.50448V8.22275H13.6437ZM36.3833 22.5616C36.3833 22.5616 35.2294 17.1251 29.5954 11.4847L36.3833 4.75696C44.8004 13.3195 36.3833 22.5616 36.3833 22.5616ZM19.5492 14.4748H29.0524C29.0524 18.9599 28.9845 23.0373 28.5093 26.639C30.5457 27.1826 32.3106 27.6583 33.5324 28.0661L31.3602 36.4247C30.0027 35.7452 28.3736 34.9976 26.6766 34.3181C24.7081 38.6673 21.1784 41.1817 14.7298 41.1817C3.937 41.1817 5.36247 26.0274 14.5941 25.1439C16.0195 25.008 17.5807 25.008 19.2099 25.1439C19.4135 22.2898 19.5492 18.756 19.5492 14.4748ZM14.9335 36.0849C16.4268 36.0849 17.5807 35.0656 18.3953 31.5998C16.9698 31.26 15.748 31.0562 14.9335 31.0562C11.6752 31.0562 11.6752 36.0849 14.9335 36.0849Z" fill="#333333"/>
</svg>
