<svg width="50" height="48" viewBox="0 0 50 48" fill="none" xmlns="http://www.w3.org/2000/svg">
<path d="M50 27.9738C50 38.5141 41.4651 47.0588 30.9367 47.0588C20.4083 47.0588 11.8733 38.5141 11.8733 27.9738C11.8733 17.4334 20.4083 8.88877 30.9367 8.88877C41.4651 8.88877 50 17.4334 50 27.9738Z" fill="#F4F910"/>
<path d="M13.3762 8.06151C10.5812 23.3184 0 24.1845 0 24.1845C0 24.1845 3.26087 19.5209 4.39219 8.06151H0.732032V5.39654H4.59184C4.65839 3.73094 4.72494 1.9321 4.72494 0H14.0417C14.0417 1.9321 13.9752 3.73094 13.7755 5.39654H20.63L23.2919 2.73158L25.9539 5.39654V8.06151H13.3762ZM35.6699 22.1192C35.6699 22.1192 34.5386 16.7893 29.0151 11.2595L35.6699 4.66368C43.9219 13.0583 35.6699 22.1192 35.6699 22.1192ZM19.1659 14.1909H28.4827C28.4827 18.5881 28.4162 22.5856 27.9503 26.1166C29.9468 26.6496 31.677 27.116 32.8749 27.5157L30.7453 35.7105C29.4144 35.0443 27.8172 34.3114 26.1535 33.6451C24.2236 37.9091 20.7631 40.3742 14.441 40.3742C3.85981 40.3742 5.25732 25.517 14.3079 24.6509C15.7054 24.5176 17.236 24.5176 18.8332 24.6509C19.0328 21.8527 19.1659 18.3882 19.1659 14.1909ZM14.6406 35.3774C16.1047 35.3774 17.236 34.378 18.0346 30.9802C16.6371 30.6471 15.4392 30.4472 14.6406 30.4472C11.4463 30.4472 11.4463 35.3774 14.6406 35.3774Z" fill="white"/>
</svg>
