<svg width="207" height="42" viewBox="0 0 207 42" fill="none" xmlns="http://www.w3.org/2000/svg">
<path d="M12.864 8.95989C10.176 23.6159 -4.57764e-05 24.4479 -4.57764e-05 24.4479C-4.57764e-05 24.4479 3.13595 19.9679 4.22395 8.95989H0.703954V6.39989H4.41595C4.47995 4.79989 4.54395 3.07189 4.54395 1.21589H13.504C13.504 3.07189 13.44 4.79989 13.248 6.39989H19.84L22.4 3.83989L24.96 6.39989V8.95989H12.864ZM34.304 22.4639C34.304 22.4639 33.216 17.3439 27.904 12.0319L34.304 5.69589C42.24 13.7599 34.304 22.4639 34.304 22.4639ZM18.432 14.8479H27.392C27.392 19.0719 27.328 22.9119 26.88 26.3039C28.8 26.8159 30.464 27.2639 31.616 27.6479L29.568 35.5199C28.288 34.8799 26.752 34.1759 25.152 33.5359C23.296 37.6319 19.968 39.9999 13.888 39.9999C3.71195 39.9999 5.05595 25.7279 13.76 24.8959C15.104 24.7679 16.576 24.7679 18.112 24.8959C18.304 22.2079 18.432 18.8799 18.432 14.8479ZM14.08 35.1999C15.488 35.1999 16.576 34.2399 17.344 30.9759C16 30.6559 14.848 30.4639 14.08 30.4639C11.008 30.4639 11.008 35.1999 14.08 35.1999ZM85.76 39.9999C68.864 41.7919 62.848 28.7999 73.536 19.6479H57.536V17.0879H70.656C71.936 16.0639 74.368 13.8239 76.672 10.2399C73.28 10.9439 66.624 11.2639 63.104 3.83989L71.232 -0.000110626C73.408 4.60789 76.096 7.35989 77.632 8.70389C78.976 6.33589 80.192 3.39189 81.024 -0.000110626L89.344 3.77589C85.312 12.7359 78.848 15.9359 74.432 17.0879H87.552L90.048 14.5279L92.608 17.0879V19.6479H75.776C73.984 23.7439 72.448 31.3599 85.76 31.0399V39.9999ZM96.512 13.3119C96.512 13.3119 95.808 11.5839 93.248 9.08789C94.208 11.9679 92.096 14.2719 92.096 14.2719C92.096 14.2719 91.328 12.3519 88.384 9.66389L91.328 6.39989C92.096 7.10389 92.608 7.80789 92.992 8.51189L95.744 5.43989C100.096 9.34389 96.512 13.3119 96.512 13.3119ZM136.896 29.8239C127.872 39.9999 115.008 39.9999 115.008 39.9999C115.008 39.9999 133.44 31.6799 136.128 8.83189C126.976 9.21589 120.832 9.21589 120.832 9.21589V2.68789C120.832 2.68789 132.096 2.68789 145.472 3.13589C145.472 14.4639 142.592 22.2719 138.624 27.7119C142.272 27.1359 148.48 27.5199 155.52 33.7279L149.056 39.9999C145.536 35.5199 139.776 31.6159 136.896 29.8239ZM179.712 1.85589H188.672C188.672 18.6879 176.896 20.9919 176.896 20.9919C176.896 20.9919 179.712 16.8319 179.712 1.85589ZM206.208 3.13589C206.208 39.9999 184.448 39.9999 184.448 39.9999C184.448 39.9999 196.352 33.9199 197.184 6.33589H190.08V3.77589H197.248V3.13589H206.208Z" fill="#333333"/>
</svg>
