<svg width="247" height="113" viewBox="0 0 247 113" fill="none" xmlns="http://www.w3.org/2000/svg">
<path d="M7.552 96.328C7.50933 96.424 7.472 96.5413 7.44 96.68C7.41867 96.808 7.392 96.9307 7.36 97.048C7.27467 97.4853 7.18933 98.04 7.104 98.712C7.01867 99.384 6.94933 100.104 6.896 100.872C6.84267 101.629 6.816 102.376 6.816 103.112C6.816 103.795 6.85867 104.461 6.944 105.112C7.04 105.763 7.15733 106.387 7.296 106.984C7.44533 107.571 7.6 108.115 7.76 108.616L6.608 108.968C6.448 108.488 6.29867 107.933 6.16 107.304C6.02133 106.664 5.90933 105.997 5.824 105.304C5.73867 104.6 5.696 103.912 5.696 103.24C5.696 102.685 5.712 102.12 5.744 101.544C5.78667 100.968 5.83467 100.408 5.888 99.864C5.94133 99.3093 5.98933 98.792 6.032 98.312C6.08533 97.832 6.13333 97.416 6.176 97.064C6.18667 96.9253 6.19733 96.7867 6.208 96.648C6.21867 96.5093 6.21867 96.392 6.208 96.296L7.552 96.328ZM4.96 98.312C5.89867 98.312 6.82667 98.2853 7.744 98.232C8.66133 98.1787 9.54133 98.0987 10.384 97.992C11.2373 97.8853 12.0373 97.7467 12.784 97.576L12.8 98.76C12.224 98.856 11.6 98.9467 10.928 99.032C10.2667 99.1067 9.58933 99.176 8.896 99.24C8.20267 99.2933 7.52 99.336 6.848 99.368C6.176 99.4 5.54133 99.416 4.944 99.416C4.72 99.416 4.448 99.4107 4.128 99.4C3.808 99.3787 3.488 99.3627 3.168 99.352C2.848 99.3307 2.576 99.3147 2.352 99.304L2.32 98.104C2.512 98.136 2.77333 98.168 3.104 98.2C3.43467 98.232 3.77067 98.2587 4.112 98.28C4.45333 98.3013 4.736 98.312 4.96 98.312ZM11.632 100.184C11.6 100.248 11.5627 100.339 11.52 100.456C11.488 100.563 11.4507 100.675 11.408 100.792C11.376 100.899 11.344 101 11.312 101.096C10.992 102.077 10.608 102.979 10.16 103.8C9.712 104.611 9.22667 105.336 8.704 105.976C8.18133 106.605 7.64267 107.133 7.088 107.56C6.56533 107.955 6 108.285 5.392 108.552C4.784 108.819 4.19733 108.952 3.632 108.952C3.29067 108.952 2.976 108.877 2.688 108.728C2.4 108.579 2.17067 108.355 2 108.056C1.82933 107.757 1.744 107.384 1.744 106.936C1.744 106.392 1.86133 105.853 2.096 105.32C2.33067 104.776 2.65067 104.264 3.056 103.784C3.472 103.304 3.94133 102.877 4.464 102.504C4.99733 102.12 5.56267 101.811 6.16 101.576C6.68267 101.384 7.248 101.229 7.856 101.112C8.47467 100.995 9.04 100.936 9.552 100.936C10.5653 100.936 11.44 101.112 12.176 101.464C12.912 101.816 13.4773 102.296 13.872 102.904C14.2773 103.501 14.48 104.173 14.48 104.92C14.48 105.496 14.3787 106.045 14.176 106.568C13.984 107.091 13.6747 107.571 13.248 108.008C12.832 108.435 12.2933 108.803 11.632 109.112C10.9707 109.421 10.176 109.651 9.248 109.8L8.56 108.728C9.53067 108.632 10.3627 108.408 11.056 108.056C11.7493 107.704 12.288 107.256 12.672 106.712C13.056 106.168 13.248 105.549 13.248 104.856C13.248 104.333 13.104 103.853 12.816 103.416C12.528 102.979 12.1067 102.627 11.552 102.36C11.008 102.083 10.336 101.944 9.536 101.944C8.864 101.944 8.24 102.024 7.664 102.184C7.09867 102.344 6.61333 102.515 6.208 102.696C5.61067 102.963 5.06133 103.32 4.56 103.768C4.06933 104.216 3.68 104.701 3.392 105.224C3.104 105.736 2.96 106.237 2.96 106.728C2.96 107.059 3.03467 107.309 3.184 107.48C3.344 107.64 3.57333 107.72 3.872 107.72C4.26667 107.72 4.70933 107.608 5.2 107.384C5.70133 107.16 6.21333 106.819 6.736 106.36C7.45067 105.741 8.112 104.984 8.72 104.088C9.33867 103.192 9.82933 102.093 10.192 100.792C10.2133 100.707 10.2347 100.611 10.256 100.504C10.2773 100.397 10.2987 100.285 10.32 100.168C10.352 100.051 10.368 99.9493 10.368 99.864L11.632 100.184ZM16.912 98.904C17.2107 98.9467 17.5253 98.9787 17.856 99C18.1867 99.0107 18.5227 99.016 18.864 99.016C19.4507 99.016 20.0533 98.9893 20.672 98.936C21.3013 98.8827 21.936 98.7973 22.576 98.68C23.216 98.552 23.8453 98.3867 24.464 98.184L24.496 99.384C23.9733 99.5227 23.3973 99.6507 22.768 99.768C22.1493 99.8853 21.504 99.9813 20.832 100.056C20.1707 100.12 19.5147 100.152 18.864 100.152C18.576 100.152 18.2667 100.152 17.936 100.152C17.616 100.141 17.3013 100.125 16.992 100.104L16.912 98.904ZM22.576 96.296C22.512 96.552 22.432 96.8773 22.336 97.272C22.24 97.6667 22.1333 98.0827 22.016 98.52C21.9093 98.9467 21.792 99.352 21.664 99.736C21.408 100.504 21.0827 101.315 20.688 102.168C20.2933 103.011 19.872 103.832 19.424 104.632C18.976 105.432 18.5333 106.131 18.096 106.728L16.864 106.088C17.216 105.672 17.568 105.197 17.92 104.664C18.2827 104.131 18.6187 103.571 18.928 102.984C19.248 102.397 19.536 101.821 19.792 101.256C20.048 100.691 20.2613 100.173 20.432 99.704C20.6027 99.192 20.7627 98.616 20.912 97.976C21.0613 97.3253 21.1467 96.7227 21.168 96.168L22.576 96.296ZM26.352 101.24C26.3413 101.571 26.3307 101.869 26.32 102.136C26.32 102.392 26.3253 102.669 26.336 102.968C26.3467 103.224 26.3573 103.555 26.368 103.96C26.3893 104.355 26.4107 104.776 26.432 105.224C26.4533 105.661 26.4693 106.083 26.48 106.488C26.5013 106.893 26.512 107.229 26.512 107.496C26.512 107.923 26.416 108.312 26.224 108.664C26.032 109.016 25.728 109.293 25.312 109.496C24.9067 109.709 24.3733 109.816 23.712 109.816C23.1253 109.816 22.592 109.731 22.112 109.56C21.632 109.4 21.2427 109.149 20.944 108.808C20.656 108.467 20.512 108.035 20.512 107.512C20.512 107.011 20.6507 106.584 20.928 106.232C21.216 105.869 21.6 105.592 22.08 105.4C22.5707 105.208 23.1147 105.112 23.712 105.112C24.608 105.112 25.4293 105.24 26.176 105.496C26.9333 105.741 27.6107 106.056 28.208 106.44C28.816 106.824 29.3387 107.203 29.776 107.576L29.088 108.664C28.7787 108.387 28.432 108.099 28.048 107.8C27.6747 107.501 27.2587 107.229 26.8 106.984C26.3413 106.728 25.8507 106.52 25.328 106.36C24.8053 106.2 24.2507 106.12 23.664 106.12C23.0773 106.12 22.6027 106.243 22.24 106.488C21.8773 106.733 21.696 107.037 21.696 107.4C21.696 107.773 21.8507 108.077 22.16 108.312C22.4693 108.547 22.9333 108.664 23.552 108.664C24 108.664 24.352 108.595 24.608 108.456C24.864 108.307 25.0453 108.115 25.152 107.88C25.2693 107.635 25.328 107.368 25.328 107.08C25.328 106.781 25.3173 106.392 25.296 105.912C25.2853 105.432 25.264 104.92 25.232 104.376C25.2107 103.821 25.184 103.272 25.152 102.728C25.1307 102.173 25.1147 101.677 25.104 101.24H26.352ZM29.552 101.672C29.264 101.416 28.9013 101.149 28.464 100.872C28.0267 100.595 27.5733 100.333 27.104 100.088C26.6453 99.832 26.24 99.624 25.888 99.464L26.544 98.488C26.832 98.616 27.152 98.7707 27.504 98.952C27.856 99.1333 28.208 99.3253 28.56 99.528C28.912 99.7307 29.2373 99.928 29.536 100.12C29.8453 100.301 30.0907 100.467 30.272 100.616L29.552 101.672ZM37.808 96.408C37.7547 96.5893 37.7013 96.808 37.648 97.064C37.5947 97.32 37.552 97.528 37.52 97.688C37.4453 98.072 37.3547 98.52 37.248 99.032C37.152 99.5333 37.04 100.061 36.912 100.616C36.7947 101.171 36.6613 101.715 36.512 102.248C36.3733 102.813 36.2027 103.432 36 104.104C35.7973 104.765 35.584 105.432 35.36 106.104C35.136 106.776 34.9067 107.411 34.672 108.008C34.4373 108.605 34.2187 109.128 34.016 109.576L32.608 109.096C32.8533 108.68 33.0987 108.184 33.344 107.608C33.6 107.021 33.8453 106.397 34.08 105.736C34.3253 105.075 34.5493 104.419 34.752 103.768C34.9653 103.107 35.1467 102.499 35.296 101.944C35.4027 101.571 35.504 101.176 35.6 100.76C35.696 100.344 35.7867 99.9387 35.872 99.544C35.9573 99.1387 36.0267 98.7707 36.08 98.44C36.144 98.0987 36.192 97.8213 36.224 97.608C36.256 97.384 36.2773 97.1493 36.288 96.904C36.2987 96.6587 36.2933 96.4507 36.272 96.28L37.808 96.408ZM34.256 99.08C34.8533 99.08 35.4933 99.0533 36.176 99C36.8693 98.936 37.5733 98.8453 38.288 98.728C39.0027 98.6107 39.6907 98.4667 40.352 98.296V99.56C39.6907 99.7093 38.9973 99.8373 38.272 99.944C37.5467 100.051 36.832 100.136 36.128 100.2C35.4347 100.253 34.8053 100.28 34.24 100.28C33.888 100.28 33.5627 100.275 33.264 100.264C32.9653 100.243 32.672 100.227 32.384 100.216L32.336 98.968C32.72 99.0107 33.0613 99.0427 33.36 99.064C33.6693 99.0747 33.968 99.08 34.256 99.08ZM39.312 101.288C39.7387 101.245 40.2027 101.213 40.704 101.192C41.216 101.16 41.728 101.144 42.24 101.144C42.7093 101.144 43.1787 101.155 43.648 101.176C44.128 101.197 44.5813 101.235 45.008 101.288L44.976 102.504C44.5707 102.451 44.1387 102.408 43.68 102.376C43.2213 102.333 42.7573 102.312 42.288 102.312C41.7867 102.312 41.2853 102.328 40.784 102.36C40.2933 102.381 39.8027 102.419 39.312 102.472V101.288ZM39.648 105.176C39.584 105.432 39.5307 105.683 39.488 105.928C39.4453 106.173 39.424 106.403 39.424 106.616C39.424 106.808 39.456 106.995 39.52 107.176C39.5947 107.347 39.728 107.501 39.92 107.64C40.112 107.779 40.384 107.891 40.736 107.976C41.0987 108.061 41.5627 108.104 42.128 108.104C42.6507 108.104 43.1787 108.077 43.712 108.024C44.2453 107.971 44.7573 107.891 45.248 107.784L45.2 109.08C44.7733 109.144 44.2987 109.197 43.776 109.24C43.2533 109.283 42.6987 109.304 42.112 109.304C40.8533 109.304 39.888 109.112 39.216 108.728C38.544 108.333 38.208 107.741 38.208 106.952C38.208 106.643 38.2293 106.333 38.272 106.024C38.3253 105.715 38.384 105.395 38.448 105.064L39.648 105.176ZM53.376 98.2C53.8133 98.264 54.32 98.3173 54.896 98.36C55.4827 98.392 56.0853 98.408 56.704 98.408C57.3333 98.3973 57.9307 98.376 58.496 98.344C59.072 98.3013 59.5573 98.248 59.952 98.184V99.48C59.5253 99.5227 59.024 99.56 58.448 99.592C57.8827 99.6133 57.2907 99.624 56.672 99.624C56.064 99.624 55.472 99.6133 54.896 99.592C54.32 99.56 53.8133 99.5227 53.376 99.48V98.2ZM54 104.712C53.9253 105 53.8667 105.261 53.824 105.496C53.7813 105.731 53.76 105.96 53.76 106.184C53.76 106.365 53.7973 106.547 53.872 106.728C53.9573 106.899 54.096 107.053 54.288 107.192C54.4907 107.32 54.768 107.427 55.12 107.512C55.472 107.587 55.92 107.624 56.464 107.624C57.1893 107.624 57.872 107.592 58.512 107.528C59.152 107.453 59.792 107.347 60.432 107.208L60.464 108.552C59.9627 108.659 59.376 108.744 58.704 108.808C58.0427 108.861 57.296 108.888 56.464 108.888C55.12 108.888 54.1333 108.675 53.504 108.248C52.8853 107.821 52.576 107.235 52.576 106.488C52.576 106.221 52.5973 105.939 52.64 105.64C52.6933 105.331 52.7627 104.984 52.848 104.6L54 104.712ZM50.32 96.968C50.2987 97.0533 50.2667 97.1653 50.224 97.304C50.192 97.432 50.1547 97.5653 50.112 97.704C50.08 97.832 50.0533 97.944 50.032 98.04C49.9787 98.3387 49.9147 98.6853 49.84 99.08C49.7653 99.464 49.6907 99.88 49.616 100.328C49.552 100.765 49.488 101.213 49.424 101.672C49.3707 102.12 49.3227 102.557 49.28 102.984C49.248 103.411 49.232 103.805 49.232 104.168C49.232 104.563 49.2427 104.936 49.264 105.288C49.296 105.64 49.3333 106.013 49.376 106.408C49.472 106.163 49.5733 105.901 49.68 105.624C49.7867 105.347 49.8933 105.075 50 104.808C50.1173 104.531 50.2187 104.285 50.304 104.072L50.976 104.584C50.8373 104.968 50.688 105.389 50.528 105.848C50.368 106.307 50.224 106.749 50.096 107.176C49.9787 107.592 49.8933 107.923 49.84 108.168C49.8187 108.285 49.7973 108.413 49.776 108.552C49.7547 108.691 49.7493 108.803 49.76 108.888C49.7707 108.973 49.776 109.064 49.776 109.16C49.7867 109.267 49.7973 109.363 49.808 109.448L48.656 109.528C48.496 108.963 48.3573 108.237 48.24 107.352C48.1227 106.456 48.064 105.469 48.064 104.392C48.064 103.805 48.0907 103.208 48.144 102.6C48.1973 101.981 48.2667 101.384 48.352 100.808C48.4373 100.221 48.5173 99.688 48.592 99.208C48.6773 98.7173 48.7413 98.3067 48.784 97.976C48.816 97.784 48.8427 97.592 48.864 97.4C48.8853 97.1973 48.896 97.0107 48.896 96.84L50.32 96.968ZM63.712 96.36H64.912V101.032C64.912 101.704 64.8907 102.44 64.848 103.24C64.8053 104.04 64.72 104.856 64.592 105.688C64.464 106.52 64.272 107.331 64.016 108.12C63.7707 108.899 63.4347 109.613 63.008 110.264C62.944 110.2 62.8427 110.125 62.704 110.04C62.576 109.965 62.4427 109.891 62.304 109.816C62.176 109.741 62.0587 109.688 61.952 109.656C62.3573 109.027 62.6773 108.344 62.912 107.608C63.1467 106.872 63.3173 106.12 63.424 105.352C63.5413 104.584 63.616 103.832 63.648 103.096C63.6907 102.36 63.712 101.672 63.712 101.032V96.36ZM64.432 96.36H75.568V100.616H64.432V99.512H74.352V97.464H64.432V96.36ZM66.48 105.576H75.184V106.568H66.48V105.576ZM66.48 108.616H75.184V109.688H66.48V108.616ZM70.16 100.76H71.328V109.176H70.16V100.76ZM65.92 102.584H75.744V110.264H74.576V103.656H67.056V110.264H65.92V102.584ZM88.064 97.192C87.8933 97.32 87.7013 97.48 87.488 97.672C87.2747 97.8533 87.0987 97.9973 86.96 98.104C86.6827 98.3493 86.3467 98.6373 85.952 98.968C85.5573 99.288 85.1413 99.6293 84.704 99.992C84.2667 100.344 83.8453 100.685 83.44 101.016C83.0347 101.336 82.6827 101.624 82.384 101.88C82.064 102.157 81.8507 102.387 81.744 102.568C81.6373 102.739 81.6373 102.915 81.744 103.096C81.8613 103.277 82.0907 103.517 82.432 103.816C82.7307 104.051 83.072 104.328 83.456 104.648C83.84 104.957 84.2453 105.293 84.672 105.656C85.1093 106.019 85.552 106.392 86 106.776C86.448 107.16 86.88 107.539 87.296 107.912C87.712 108.285 88.0853 108.643 88.416 108.984L87.28 110.04C86.9493 109.656 86.5813 109.267 86.176 108.872C85.8987 108.584 85.552 108.248 85.136 107.864C84.72 107.48 84.272 107.08 83.792 106.664C83.3227 106.248 82.8533 105.848 82.384 105.464C81.9253 105.069 81.5093 104.717 81.136 104.408C80.624 103.981 80.2987 103.608 80.16 103.288C80.0213 102.957 80.048 102.632 80.24 102.312C80.432 101.992 80.768 101.635 81.248 101.24C81.5467 100.984 81.904 100.685 82.32 100.344C82.7467 100.003 83.1893 99.6453 83.648 99.272C84.1067 98.888 84.5387 98.52 84.944 98.168C85.36 97.8053 85.7013 97.4853 85.968 97.208C86.128 97.048 86.2933 96.8667 86.464 96.664C86.6453 96.4613 86.784 96.2853 86.88 96.136L88.064 97.192ZM96.528 109.896C96.1867 109.469 95.8133 109.043 95.408 108.616C95.0027 108.189 94.592 107.779 94.176 107.384C93.7707 106.989 93.376 106.637 92.992 106.328L94.032 105.416C94.416 105.725 94.8213 106.083 95.248 106.488C95.6747 106.893 96.0907 107.309 96.496 107.736C96.912 108.163 97.2853 108.573 97.616 108.968L96.528 109.896ZM111.584 96.408H119.92V97.576H111.584V96.408ZM111.584 100.264H120V101.4H111.584V100.264ZM111.456 104.12H119.92V105.288H111.456V104.12ZM110.832 96.408H112.048V101.336C112.048 102.029 112.011 102.771 111.936 103.56C111.872 104.349 111.733 105.149 111.52 105.96C111.307 106.76 110.987 107.533 110.56 108.28C110.144 109.027 109.589 109.699 108.896 110.296C108.843 110.211 108.757 110.109 108.64 109.992C108.533 109.875 108.421 109.763 108.304 109.656C108.187 109.56 108.08 109.485 107.984 109.432C108.635 108.856 109.147 108.237 109.52 107.576C109.904 106.904 110.187 106.211 110.368 105.496C110.56 104.781 110.683 104.072 110.736 103.368C110.8 102.653 110.832 101.976 110.832 101.336V96.408ZM119.392 96.408H120.656V108.504C120.656 108.931 120.592 109.256 120.464 109.48C120.336 109.704 120.123 109.869 119.824 109.976C119.515 110.083 119.083 110.147 118.528 110.168C117.973 110.2 117.269 110.216 116.416 110.216C116.395 110.088 116.352 109.949 116.288 109.8C116.235 109.651 116.171 109.496 116.096 109.336C116.032 109.187 115.968 109.059 115.904 108.952C116.352 108.963 116.779 108.973 117.184 108.984C117.6 108.984 117.957 108.984 118.256 108.984C118.565 108.973 118.779 108.968 118.896 108.968C119.088 108.957 119.216 108.92 119.28 108.856C119.355 108.781 119.392 108.659 119.392 108.488V96.408ZM126.832 109V107.784H130.4V99.016H127.68V98.088C128.341 97.9707 128.923 97.8587 129.424 97.752C129.936 97.6453 130.379 97.4747 130.752 97.24H131.856V107.784H135.2V109H126.832ZM144.224 101V104.664H148.128V101H144.224ZM143.088 99.912H149.312V105.736H143.088V99.912ZM139.552 96.216H152.944V110.264H151.664V97.416H140.784V110.264H139.552V96.216ZM140.256 108.264H152.4V109.4H140.256V108.264ZM162.624 98.072C162.517 98.904 162.379 99.7733 162.208 100.68C162.048 101.587 161.84 102.467 161.584 103.32C161.264 104.419 160.907 105.336 160.512 106.072C160.128 106.808 159.712 107.363 159.264 107.736C158.816 108.109 158.347 108.296 157.856 108.296C157.387 108.296 156.933 108.125 156.496 107.784C156.059 107.443 155.701 106.952 155.424 106.312C155.147 105.661 155.008 104.899 155.008 104.024C155.008 103.149 155.184 102.323 155.536 101.544C155.899 100.765 156.395 100.077 157.024 99.48C157.664 98.872 158.411 98.392 159.264 98.04C160.117 97.688 161.029 97.512 162 97.512C162.939 97.512 163.781 97.6667 164.528 97.976C165.285 98.2853 165.931 98.712 166.464 99.256C166.997 99.7893 167.408 100.413 167.696 101.128C167.984 101.832 168.128 102.589 168.128 103.4C168.128 104.52 167.888 105.507 167.408 106.36C166.939 107.213 166.256 107.907 165.36 108.44C164.475 108.973 163.397 109.325 162.128 109.496L161.376 108.312C161.632 108.28 161.877 108.248 162.112 108.216C162.347 108.184 162.56 108.147 162.752 108.104C163.264 107.987 163.76 107.805 164.24 107.56C164.731 107.304 165.168 106.984 165.552 106.6C165.936 106.205 166.24 105.741 166.464 105.208C166.699 104.664 166.816 104.045 166.816 103.352C166.816 102.701 166.709 102.099 166.496 101.544C166.283 100.979 165.968 100.483 165.552 100.056C165.136 99.6293 164.629 99.2933 164.032 99.048C163.435 98.8027 162.752 98.68 161.984 98.68C161.109 98.68 160.315 98.84 159.6 99.16C158.896 99.48 158.293 99.9013 157.792 100.424C157.301 100.936 156.923 101.501 156.656 102.12C156.389 102.728 156.256 103.325 156.256 103.912C156.256 104.584 156.341 105.139 156.512 105.576C156.693 106.003 156.907 106.317 157.152 106.52C157.408 106.723 157.659 106.824 157.904 106.824C158.16 106.824 158.421 106.701 158.688 106.456C158.955 106.2 159.227 105.795 159.504 105.24C159.781 104.675 160.053 103.944 160.32 103.048C160.555 102.28 160.752 101.464 160.912 100.6C161.083 99.736 161.205 98.888 161.28 98.056L162.624 98.072ZM170.432 96.136H174.032V97.096H170.432V96.136ZM170.272 100.472H174.16V101.432H170.272V100.472ZM170.272 102.6H174.16V103.56H170.272V102.6ZM169.6 98.248H174.912V99.272H169.6V98.248ZM170.72 104.744H174.24V109.256H170.72V108.296H173.216V105.704H170.72V104.744ZM170.176 104.744H171.168V110.04H170.176V104.744ZM174.784 96.328L175.6 95.816C175.899 96.104 176.192 96.4347 176.48 96.808C176.779 97.1707 176.997 97.4907 177.136 97.768L176.272 98.36C176.144 98.0613 175.936 97.7253 175.648 97.352C175.371 96.968 175.083 96.6267 174.784 96.328ZM174.656 99.88L175.44 99.32C175.771 99.5973 176.101 99.9173 176.432 100.28C176.763 100.643 177.003 100.963 177.152 101.24L176.336 101.88C176.176 101.592 175.936 101.261 175.616 100.888C175.296 100.515 174.976 100.179 174.656 99.88ZM177.024 103.128V107.912H175.968V104.168H174.576V103.128H177.024ZM177.024 107.352C177.28 107.821 177.653 108.2 178.144 108.488C178.635 108.765 179.2 108.92 179.84 108.952C180.117 108.963 180.453 108.968 180.848 108.968C181.253 108.968 181.675 108.968 182.112 108.968C182.56 108.957 182.992 108.941 183.408 108.92C183.824 108.899 184.192 108.883 184.512 108.872C184.469 108.947 184.421 109.048 184.368 109.176C184.315 109.315 184.272 109.453 184.24 109.592C184.208 109.731 184.181 109.859 184.16 109.976C183.872 109.987 183.536 109.997 183.152 110.008C182.779 110.019 182.384 110.024 181.968 110.024C181.563 110.024 181.168 110.024 180.784 110.024C180.411 110.024 180.08 110.019 179.792 110.008C179.056 109.965 178.421 109.8 177.888 109.512C177.355 109.224 176.907 108.819 176.544 108.296C176.277 108.605 176 108.909 175.712 109.208C175.435 109.507 175.136 109.827 174.816 110.168L174.24 109.096C174.528 108.851 174.832 108.579 175.152 108.28C175.483 107.971 175.792 107.661 176.08 107.352H177.024ZM177.456 101H184.192V102.072H177.456V101ZM180.272 95.608H181.328V108.28H180.272V95.608ZM177.568 96.856L178.496 96.584C178.667 96.9467 178.827 97.336 178.976 97.752C179.136 98.168 179.269 98.5733 179.376 98.968C179.493 99.352 179.579 99.6933 179.632 99.992L178.64 100.312C178.597 100.013 178.523 99.6667 178.416 99.272C178.309 98.8667 178.181 98.456 178.032 98.04C177.883 97.6133 177.728 97.2187 177.568 96.856ZM182.912 96.488L183.984 96.824C183.877 97.208 183.76 97.6133 183.632 98.04C183.504 98.4667 183.371 98.8773 183.232 99.272C183.104 99.6667 182.981 100.019 182.864 100.328L181.952 100.024C182.069 99.7147 182.187 99.352 182.304 98.936C182.432 98.52 182.549 98.0987 182.656 97.672C182.763 97.2347 182.848 96.84 182.912 96.488ZM180.112 101.448L180.896 101.768C180.693 102.419 180.437 103.085 180.128 103.768C179.819 104.451 179.472 105.091 179.088 105.688C178.715 106.285 178.325 106.781 177.92 107.176C177.867 107.005 177.781 106.813 177.664 106.6C177.557 106.387 177.456 106.205 177.36 106.056C177.723 105.715 178.08 105.293 178.432 104.792C178.784 104.291 179.109 103.747 179.408 103.16C179.707 102.573 179.941 102.003 180.112 101.448ZM181.504 101.512C181.728 102.067 182 102.637 182.32 103.224C182.651 103.811 182.997 104.36 183.36 104.872C183.733 105.373 184.091 105.789 184.432 106.12C184.293 106.216 184.139 106.349 183.968 106.52C183.808 106.68 183.675 106.829 183.568 106.968C183.248 106.584 182.912 106.104 182.56 105.528C182.208 104.952 181.877 104.339 181.568 103.688C181.259 103.037 180.992 102.408 180.768 101.8L181.504 101.512ZM186.544 99.624H191.168V100.552H186.544V99.624ZM186.544 102.344H191.168V103.256H186.544V102.344ZM186.544 105.112H191.168V106.072H186.544V105.112ZM193.36 103.128H199.44V104.184H193.36V103.128ZM187.376 96.984H190.016V97.944H187.376V96.984ZM192.32 96.376H198.576V97.384H192.32V96.376ZM192.128 106.12H199.728V107.192H192.128V106.12ZM195.52 101.496H196.656V110.216H195.52V101.496ZM188.512 100.072H189.392V105.512H188.512V100.072ZM198.208 96.376H199.296C199.296 96.376 199.291 96.4293 199.28 96.536C199.28 96.6427 199.275 96.7387 199.264 96.824C199.232 97.7093 199.189 98.4293 199.136 98.984C199.083 99.5387 199.019 99.9653 198.944 100.264C198.869 100.563 198.773 100.776 198.656 100.904C198.56 101.032 198.443 101.128 198.304 101.192C198.165 101.245 197.995 101.283 197.792 101.304C197.632 101.325 197.397 101.336 197.088 101.336C196.779 101.325 196.459 101.309 196.128 101.288C196.117 101.139 196.085 100.968 196.032 100.776C195.989 100.584 195.925 100.424 195.84 100.296C196.16 100.317 196.453 100.333 196.72 100.344C196.987 100.355 197.173 100.36 197.28 100.36C197.397 100.36 197.493 100.355 197.568 100.344C197.643 100.323 197.707 100.28 197.76 100.216C197.824 100.131 197.883 99.96 197.936 99.704C197.989 99.448 198.037 99.064 198.08 98.552C198.123 98.04 198.165 97.368 198.208 96.536V96.376ZM193.424 101.64L194.464 101.832C194.293 102.579 194.075 103.299 193.808 103.992C193.541 104.675 193.237 105.256 192.896 105.736C192.832 105.683 192.741 105.629 192.624 105.576C192.507 105.512 192.389 105.453 192.272 105.4C192.155 105.336 192.048 105.283 191.952 105.24C192.304 104.781 192.603 104.237 192.848 103.608C193.093 102.968 193.285 102.312 193.424 101.64ZM187.344 95.544L188.448 95.784C188.245 96.5093 188.005 97.2133 187.728 97.896C187.451 98.5787 187.141 99.2187 186.8 99.816C186.469 100.403 186.112 100.92 185.728 101.368C185.675 101.304 185.589 101.229 185.472 101.144C185.365 101.048 185.253 100.957 185.136 100.872C185.019 100.776 184.917 100.701 184.832 100.648C185.397 100.04 185.893 99.288 186.32 98.392C186.757 97.4853 187.099 96.536 187.344 95.544ZM186.064 99.624H187.072V103.88C187.072 104.36 187.051 104.883 187.008 105.448C186.976 106.013 186.912 106.584 186.816 107.16C186.731 107.736 186.597 108.296 186.416 108.84C186.245 109.373 186.021 109.864 185.744 110.312C185.68 110.248 185.595 110.179 185.488 110.104C185.381 110.04 185.269 109.976 185.152 109.912C185.045 109.848 184.949 109.8 184.864 109.768C185.227 109.192 185.493 108.568 185.664 107.896C185.835 107.213 185.941 106.525 185.984 105.832C186.037 105.128 186.064 104.477 186.064 103.88V99.624ZM190.832 99.624H191.856V108.968C191.856 109.256 191.813 109.485 191.728 109.656C191.653 109.837 191.515 109.976 191.312 110.072C191.109 110.157 190.837 110.211 190.496 110.232C190.155 110.253 189.701 110.264 189.136 110.264C189.115 110.125 189.067 109.955 188.992 109.752C188.917 109.549 188.843 109.379 188.768 109.24C189.184 109.251 189.552 109.256 189.872 109.256C190.203 109.256 190.421 109.251 190.528 109.24C190.635 109.24 190.709 109.219 190.752 109.176C190.805 109.133 190.832 109.059 190.832 108.952V99.624ZM194.608 96.696H195.712C195.616 97.432 195.461 98.12 195.248 98.76C195.035 99.4 194.709 99.976 194.272 100.488C193.845 100.989 193.253 101.405 192.496 101.736C192.432 101.608 192.336 101.464 192.208 101.304C192.08 101.144 191.952 101.016 191.824 100.92C192.485 100.643 193.003 100.291 193.376 99.864C193.749 99.4267 194.027 98.9413 194.208 98.408C194.4 97.864 194.533 97.2933 194.608 96.696ZM189.728 96.984H189.968L190.144 96.936L190.848 97.384C190.677 97.8853 190.459 98.408 190.192 98.952C189.925 99.4853 189.669 99.9387 189.424 100.312C189.328 100.237 189.2 100.157 189.04 100.072C188.891 99.976 188.757 99.9013 188.64 99.848C188.779 99.6133 188.917 99.3413 189.056 99.032C189.195 98.712 189.323 98.392 189.44 98.072C189.557 97.7413 189.653 97.448 189.728 97.192V96.984ZM202.544 98.04C203.664 98.168 204.731 98.2427 205.744 98.264C206.768 98.2853 207.691 98.2587 208.512 98.184C209.163 98.12 209.808 98.024 210.448 97.896C211.099 97.7573 211.712 97.5973 212.288 97.416L212.464 98.568C211.941 98.7173 211.355 98.856 210.704 98.984C210.064 99.112 209.424 99.208 208.784 99.272C207.973 99.3467 207.029 99.384 205.952 99.384C204.885 99.3733 203.776 99.3147 202.624 99.208L202.544 98.04ZM202.24 101.32C203.147 101.416 204.043 101.48 204.928 101.512C205.813 101.533 206.651 101.528 207.44 101.496C208.229 101.464 208.933 101.411 209.552 101.336C210.32 101.251 211.019 101.139 211.648 101C212.277 100.861 212.805 100.723 213.232 100.584L213.424 101.784C212.987 101.901 212.475 102.019 211.888 102.136C211.301 102.243 210.672 102.339 210 102.424C209.339 102.499 208.587 102.557 207.744 102.6C206.901 102.632 206.011 102.643 205.072 102.632C204.144 102.611 203.221 102.573 202.304 102.52L202.24 101.32ZM207.712 97.832C207.648 97.5867 207.573 97.3467 207.488 97.112C207.413 96.8667 207.339 96.632 207.264 96.408L208.624 96.232C208.677 96.68 208.763 97.1493 208.88 97.64C208.997 98.12 209.125 98.5947 209.264 99.064C209.403 99.5227 209.536 99.9387 209.664 100.312C209.813 100.728 209.989 101.171 210.192 101.64C210.395 102.109 210.619 102.573 210.864 103.032C211.109 103.491 211.371 103.928 211.648 104.344C211.733 104.461 211.824 104.579 211.92 104.696C212.027 104.803 212.133 104.915 212.24 105.032L211.584 106.008C211.285 105.923 210.933 105.853 210.528 105.8C210.123 105.736 209.707 105.683 209.28 105.64C208.853 105.587 208.453 105.539 208.08 105.496L208.192 104.52C208.619 104.563 209.061 104.611 209.52 104.664C209.979 104.717 210.336 104.76 210.592 104.792C210.144 104.099 209.749 103.384 209.408 102.648C209.077 101.912 208.795 101.219 208.56 100.568C208.432 100.205 208.315 99.8693 208.208 99.56C208.112 99.24 208.021 98.936 207.936 98.648C207.861 98.36 207.787 98.088 207.712 97.832ZM204.56 104.76C204.368 105.037 204.208 105.32 204.08 105.608C203.952 105.896 203.888 106.216 203.888 106.568C203.888 107.229 204.187 107.725 204.784 108.056C205.392 108.387 206.325 108.552 207.584 108.552C208.331 108.552 209.008 108.525 209.616 108.472C210.224 108.419 210.816 108.333 211.392 108.216L211.344 109.496C210.789 109.581 210.197 109.645 209.568 109.688C208.939 109.741 208.283 109.768 207.6 109.768C206.555 109.768 205.664 109.661 204.928 109.448C204.203 109.235 203.648 108.909 203.264 108.472C202.891 108.035 202.699 107.475 202.688 106.792C202.677 106.333 202.731 105.928 202.848 105.576C202.976 105.213 203.131 104.856 203.312 104.504L204.56 104.76ZM220.288 96.472H230.192V97.56H220.288V96.472ZM221.312 105.4C221.824 106.157 222.523 106.792 223.408 107.304C224.304 107.805 225.355 108.2 226.56 108.488C227.776 108.776 229.109 108.968 230.56 109.064C230.475 109.16 230.384 109.272 230.288 109.4C230.192 109.539 230.101 109.672 230.016 109.8C229.941 109.939 229.883 110.067 229.84 110.184C228.368 110.045 227.013 109.8 225.776 109.448C224.549 109.107 223.467 108.637 222.528 108.04C221.6 107.432 220.848 106.675 220.272 105.768L221.312 105.4ZM221.84 102.392V104.056H228.464V102.392H221.84ZM221.84 99.848V101.48H228.464V99.848H221.84ZM220.72 98.904H229.632V104.984H220.72V98.904ZM224.656 96.808H225.84V103.192C225.84 103.768 225.803 104.339 225.728 104.904C225.653 105.469 225.504 106.019 225.28 106.552C225.056 107.075 224.731 107.571 224.304 108.04C223.877 108.499 223.317 108.92 222.624 109.304C221.931 109.699 221.072 110.04 220.048 110.328C220.005 110.232 219.941 110.12 219.856 109.992C219.771 109.875 219.68 109.752 219.584 109.624C219.499 109.507 219.413 109.411 219.328 109.336C220.331 109.101 221.163 108.824 221.824 108.504C222.485 108.173 223.003 107.805 223.376 107.4C223.76 106.995 224.043 106.563 224.224 106.104C224.405 105.645 224.523 105.171 224.576 104.68C224.629 104.179 224.656 103.677 224.656 103.176V96.808ZM219.152 95.624L220.288 95.944C219.979 96.8507 219.616 97.7467 219.2 98.632C218.784 99.5067 218.331 100.333 217.84 101.112C217.349 101.891 216.837 102.584 216.304 103.192C216.272 103.096 216.213 102.973 216.128 102.824C216.043 102.675 215.952 102.525 215.856 102.376C215.76 102.216 215.675 102.093 215.6 102.008C216.08 101.485 216.539 100.883 216.976 100.2C217.424 99.5067 217.829 98.7707 218.192 97.992C218.565 97.2133 218.885 96.424 219.152 95.624ZM217.6 99.736L218.736 98.6L218.752 98.616V110.248H217.6V99.736ZM235.824 96.376C235.739 96.6747 235.653 97.0213 235.568 97.416C235.493 97.8 235.419 98.2053 235.344 98.632C235.28 99.048 235.221 99.448 235.168 99.832C235.125 100.216 235.093 100.547 235.072 100.824C235.243 100.419 235.467 100.003 235.744 99.576C236.021 99.1493 236.352 98.76 236.736 98.408C237.12 98.0453 237.536 97.752 237.984 97.528C238.443 97.304 238.923 97.192 239.424 97.192C240.139 97.192 240.768 97.416 241.312 97.864C241.867 98.312 242.299 98.9467 242.608 99.768C242.917 100.589 243.072 101.56 243.072 102.68C243.072 103.789 242.907 104.755 242.576 105.576C242.245 106.387 241.781 107.075 241.184 107.64C240.587 108.205 239.872 108.664 239.04 109.016C238.219 109.368 237.312 109.629 236.32 109.8L235.568 108.648C236.432 108.52 237.237 108.328 237.984 108.072C238.741 107.805 239.403 107.448 239.968 107C240.533 106.541 240.971 105.96 241.28 105.256C241.6 104.552 241.76 103.699 241.76 102.696C241.76 101.853 241.664 101.107 241.472 100.456C241.28 99.7947 240.997 99.2773 240.624 98.904C240.251 98.5307 239.781 98.344 239.216 98.344C238.715 98.344 238.235 98.504 237.776 98.824C237.317 99.144 236.896 99.56 236.512 100.072C236.139 100.573 235.835 101.117 235.6 101.704C235.365 102.28 235.221 102.829 235.168 103.352C235.125 103.661 235.104 103.965 235.104 104.264C235.115 104.563 235.147 104.915 235.2 105.32L233.968 105.416C233.925 105.117 233.883 104.749 233.84 104.312C233.808 103.875 233.792 103.395 233.792 102.872C233.792 102.499 233.808 102.083 233.84 101.624C233.883 101.155 233.925 100.685 233.968 100.216C234.021 99.736 234.075 99.2773 234.128 98.84C234.192 98.4027 234.245 98.024 234.288 97.704C234.32 97.4587 234.347 97.224 234.368 97C234.389 96.7653 234.405 96.5413 234.416 96.328L235.824 96.376Z" fill="white"/>
<path d="M31.112 38.872C28.424 53.528 18.248 54.36 18.248 54.36C18.248 54.36 21.384 49.88 22.472 38.872H18.952V36.312H22.664C22.728 34.712 22.792 32.984 22.792 31.128H31.752C31.752 32.984 31.688 34.712 31.496 36.312H38.088L40.648 33.752L43.208 36.312V38.872H31.112ZM52.552 52.376C52.552 52.376 51.464 47.256 46.152 41.944L52.552 35.608C60.488 43.672 52.552 52.376 52.552 52.376ZM36.68 44.76H45.64C45.64 48.984 45.576 52.824 45.128 56.216C47.048 56.728 48.712 57.176 49.864 57.56L47.816 65.432C46.536 64.792 45 64.088 43.4 63.448C41.544 67.544 38.216 69.912 32.136 69.912C21.96 69.912 23.304 55.64 32.008 54.808C33.352 54.68 34.824 54.68 36.36 54.808C36.552 52.12 36.68 48.792 36.68 44.76ZM32.328 65.112C33.736 65.112 34.824 64.152 35.592 60.888C34.248 60.568 33.096 60.376 32.328 60.376C29.256 60.376 29.256 65.112 32.328 65.112ZM104.008 69.912C87.112 71.704 81.096 58.712 91.784 49.56H75.784V47H88.904C90.184 45.976 92.616 43.736 94.92 40.152C91.528 40.856 84.872 41.176 81.352 33.752L89.48 29.912C91.656 34.52 94.344 37.272 95.88 38.616C97.224 36.248 98.44 33.304 99.272 29.912L107.592 33.688C103.56 42.648 97.096 45.848 92.68 47H105.8L108.296 44.44L110.856 47V49.56H94.024C92.232 53.656 90.696 61.272 104.008 60.952V69.912ZM114.76 43.224C114.76 43.224 114.056 41.496 111.496 39C112.456 41.88 110.344 44.184 110.344 44.184C110.344 44.184 109.576 42.264 106.632 39.576L109.576 36.312C110.344 37.016 110.856 37.72 111.24 38.424L113.992 35.352C118.344 39.256 114.76 43.224 114.76 43.224ZM155.144 59.736C146.12 69.912 133.256 69.912 133.256 69.912C133.256 69.912 151.688 61.592 154.376 38.744C145.224 39.128 139.08 39.128 139.08 39.128V32.6C139.08 32.6 150.344 32.6 163.72 33.048C163.72 44.376 160.84 52.184 156.872 57.624C160.52 57.048 166.728 57.432 173.768 63.64L167.304 69.912C163.784 65.432 158.024 61.528 155.144 59.736ZM197.96 31.768H206.92C206.92 48.6 195.144 50.904 195.144 50.904C195.144 50.904 197.96 46.744 197.96 31.768ZM224.456 33.048C224.456 69.912 202.696 69.912 202.696 69.912C202.696 69.912 214.6 63.832 215.432 36.248H208.328V33.688H215.496V33.048H224.456Z" fill="white"/>
</svg>
