<svg width="364" height="54" viewBox="0 0 364 54" fill="none" xmlns="http://www.w3.org/2000/svg">
<path d="M2.00055 38.9659C7.96613 36.8395 23.0636 31.2759 29.3046 25.6207C37.8668 17.8621 36.4718 9.41379 35.4996 5.51767C35.0407 3.67859 33.1592 0.552153 29.3046 2.75905C25.4499 4.96595 23.7214 10.046 22.8801 13.2069C21.3657 18.8966 21.2549 33.8966 27.6984 38.9659C35.4996 45.1034 57.7558 52 69.9164 52C82.077 52 108.142 49.8625 138.062 41.7246C175.461 31.5521 224.792 5.69008 257.373 10.3453C289.955 15.0004 305.328 34.4832 331.484 33.2763C352.41 32.3108 360.547 25.7476 362.001 22.5866" stroke="#F4F910" stroke-width="4" stroke-linecap="round" stroke-linejoin="round"/>
</svg>
